<?xml version="1.0" encoding="UTF-8" standalone="no"?>
<!-- Created with Inkscape (http://www.inkscape.org/) -->

<svg
   width="512"
   height="256"
   viewBox="0 0 135.46666 67.733335"
   version="1.1"
   id="svg1"
   xmlns="http://www.w3.org/2000/svg"
   xmlns:svg="http://www.w3.org/2000/svg">
  <defs
     id="defs1" />
  <g
     id="layer1">
    <g
       id="g17"
       transform="matrix(7.9434352,0,0,7.9434352,-30239.075,1242.9953)">
      <g
         id="g15-7-8-8-1"
         transform="matrix(0.70590426,0,0,0.70590426,1032.2466,-164.41362)">
        <g
           id="g58-1-5-1-4-7-8"
           transform="matrix(1.0628372,0,0,1.0628372,914.04308,-133.01188)">
          <path
             id="path57-9-2-6-9-8-8"
             style="opacity:1;fill:#ffffff;fill-opacity:1;stroke:none;stroke-width:8.68495;stroke-dasharray:none;stroke-opacity:1"
             d="m 2843.0141,138.31065 a 3.2742188,3.0261719 0 0 0 -3.2745,3.0265 3.2742188,3.0261719 0 0 0 3.2745,3.0258 3.2742188,3.0261719 0 0 0 1.4981,-0.34301 5.6861146,5.6861146 0 0 1 -0.6179,-2.55261 5.6861146,5.6861146 0 0 1 0.7329,-2.7627 3.2742188,3.0261719 0 0 0 -1.6131,-0.39398 z" />
          <g
             style="fill:#f7931a;fill-opacity:1"
             id="g57-6-4-1-8-2-8"
             transform="matrix(0.53599157,0,0,0.53599157,2836.6981,135.03582)">
            <path
               id="path1-1-7-9-4-1-1-9"
               style="fill:#f7931a;fill-opacity:1"
               d="M 11.927664,4.0036515 C 8.3631869,4.0337342 5.1329914,6.4507418 4.2301798,10.0704 c -1.069999,4.279996 1.5503028,8.619323 5.8302982,9.689322 2.095888,0.517865 4.201775,0.157855 5.934388,-0.842997 a 10.60859,10.60859 0 0 1 -1.958425,-3.44395 c -0.527032,0.158921 -1.181015,0.115989 -1.926299,-0.02313 l -0.359815,1.450828 -0.880263,-0.221029 0.359815,-1.428982 c -0.23,-0.06 -0.460356,-0.109908 -0.700355,-0.179908 l -0.359816,1.439262 -0.8699828,-0.219744 0.3598157,-1.449543 c -0.2099998,-0.06 -0.4096776,-0.110913 -0.6296774,-0.170913 L 7.8900189,14.389473 8.329508,13.3897 c 0,0 0.5999579,0.160632 0.6399579,0.160632 0.2499997,0.06 0.3609374,-0.10075 0.4009374,-0.210749 l -0.010281,-0.01928 0.9894937,-3.9502621 c 0,-0.1899998 -0.05993,-0.4201673 -0.4099335,-0.5101672 0,-0.01 -0.6399578,-0.1593469 -0.6399578,-0.1593469 l 0.230025,-0.9406609 1.2105233,0.3096984 c 0.179999,0.04 0.370284,0.091076 0.560283,0.1310757 l 0.359816,-1.4405476 0.869983,0.2197446 -0.350821,1.4097063 c 0.24,0.06 0.480637,0.1109124 0.710637,0.1709124 l 0.349536,-1.4007109 0.880263,0.2197445 -0.359817,1.4508281 c 0.04932,0.016441 0.09456,0.035393 0.142641,0.052687 A 10.60859,10.60859 0 0 1 15.997436,5.0779582 C 15.365014,4.7124395 14.67292,4.4258865 13.929782,4.2401018 13.25947,4.074477 12.587753,3.9980807 11.927664,4.0036515 Z m 0.03213,5.4460669 -0.439489,1.7502456 c 0.391568,0.09398 1.411661,0.424082 1.95714,0.08867 a 10.60859,10.60859 0 0 1 0.137501,-1.168115 C 13.206252,9.6806967 12.312694,9.534415 11.959791,9.4497184 Z m -0.659234,2.6407896 -0.480611,1.928869 c 0.6,0.15 2.429903,0.740464 2.699903,-0.349535 0.01178,-0.04796 0.01495,-0.0925 0.01928,-0.137501 a 10.60859,10.60859 0 0 1 -0.02442,-0.295563 c -0.229028,-0.78473 -1.698957,-1.017471 -2.214152,-1.14627 z" />
          </g>
        </g>
      </g>
      <g
         id="g15-7-8-8-1-2"
         transform="matrix(0.70590426,0,0,0.70590426,1037.1291,-164.41362)">
        <g
           id="g58-1-5-1-4-7-8-3"
           transform="matrix(1.0628372,0,0,1.0628372,914.04308,-133.01188)">
          <path
             id="path57-9-2-6-9-8-8-3"
             style="opacity:1;fill:#ffffff;fill-opacity:1;stroke:none;stroke-width:8.68495;stroke-dasharray:none;stroke-opacity:1"
             d="m 2843.0141,138.31065 a 3.2742188,3.0261719 0 0 0 -3.2745,3.0265 3.2742188,3.0261719 0 0 0 3.2745,3.0258 3.2742188,3.0261719 0 0 0 1.4981,-0.34301 5.6861146,5.6861146 0 0 1 -0.6179,-2.55261 5.6861146,5.6861146 0 0 1 0.7329,-2.7627 3.2742188,3.0261719 0 0 0 -1.6131,-0.39398 z" />
          <g
             style="fill:#f7931a;fill-opacity:1"
             id="g57-6-4-1-8-2-8-9"
             transform="matrix(0.53599157,0,0,0.53599157,2836.6981,135.03582)">
            <path
               id="path1-1-7-9-4-1-1-9-5"
               style="fill:#f7931a;fill-opacity:1"
               d="M 11.927664,4.0036515 C 8.3631869,4.0337342 5.1329914,6.4507418 4.2301798,10.0704 c -1.069999,4.279996 1.5503028,8.619323 5.8302982,9.689322 2.095888,0.517865 4.201775,0.157855 5.934388,-0.842997 a 10.60859,10.60859 0 0 1 -1.958425,-3.44395 c -0.527032,0.158921 -1.181015,0.115989 -1.926299,-0.02313 l -0.359815,1.450828 -0.880263,-0.221029 0.359815,-1.428982 c -0.23,-0.06 -0.460356,-0.109908 -0.700355,-0.179908 l -0.359816,1.439262 -0.8699828,-0.219744 0.3598157,-1.449543 c -0.2099998,-0.06 -0.4096776,-0.110913 -0.6296774,-0.170913 L 7.8900189,14.389473 8.329508,13.3897 c 0,0 0.5999579,0.160632 0.6399579,0.160632 0.2499997,0.06 0.3609374,-0.10075 0.4009374,-0.210749 l -0.010281,-0.01928 0.9894937,-3.9502621 c 0,-0.1899998 -0.05993,-0.4201673 -0.4099335,-0.5101672 0,-0.01 -0.6399578,-0.1593469 -0.6399578,-0.1593469 l 0.230025,-0.9406609 1.2105233,0.3096984 c 0.179999,0.04 0.370284,0.091076 0.560283,0.1310757 l 0.359816,-1.4405476 0.869983,0.2197446 -0.350821,1.4097063 c 0.24,0.06 0.480637,0.1109124 0.710637,0.1709124 l 0.349536,-1.4007109 0.880263,0.2197445 -0.359817,1.4508281 c 0.04932,0.016441 0.09456,0.035393 0.142641,0.052687 A 10.60859,10.60859 0 0 1 15.997436,5.0779582 C 15.365014,4.7124395 14.67292,4.4258865 13.929782,4.2401018 13.25947,4.074477 12.587753,3.9980807 11.927664,4.0036515 Z m 0.03213,5.4460669 -0.439489,1.7502456 c 0.391568,0.09398 1.411661,0.424082 1.95714,0.08867 a 10.60859,10.60859 0 0 1 0.137501,-1.168115 C 13.206252,9.6806967 12.312694,9.534415 11.959791,9.4497184 Z m -0.659234,2.6407896 -0.480611,1.928869 c 0.6,0.15 2.429903,0.740464 2.699903,-0.349535 0.01178,-0.04796 0.01495,-0.0925 0.01928,-0.137501 a 10.60859,10.60859 0 0 1 -0.02442,-0.295563 c -0.229028,-0.78473 -1.698957,-1.017471 -2.214152,-1.14627 z" />
          </g>
        </g>
      </g>
      <g
         id="g58-1-5-1-1-2-2"
         transform="matrix(0.75026131,0,0,0.75026131,1687.2386,-258.30743)">
        <ellipse
           style="opacity:1;fill:#ffffff;fill-opacity:1;stroke:none;stroke-width:8.68495;stroke-dasharray:none;stroke-opacity:1"
           id="path57-9-2-6-2-4-0"
           cx="2843.0142"
           cy="141.3371"
           rx="3.2742188"
           ry="3.0261719" />
        <g
           style="fill:#f7931a;fill-opacity:1"
           id="g57-6-4-1-83-5-1"
           transform="matrix(0.53599157,0,0,0.53599157,2836.6981,135.03582)">
          <path
             d="m 13.52,13.67 c -0.27,1.09 -2.1,0.5 -2.7,0.35 l 0.48,-1.93 c 0.6,0.15 2.5,0.44 2.22,1.58 z M 11.96,9.45003 11.52,11.2 c 0.5,0.12 2.03,0.63 2.28,-0.36 0.25,-1.02997 -1.34,-1.26997 -1.84,-1.38997 z m 7.8,4.47997 c -1.07,4.28 -5.41,6.89 -9.7,5.83 -4.28,-1.07 -6.9,-5.41 -5.83,-9.69 1.07,-4.28997 5.41,-6.88997 9.7,-5.82997 4.28,1.07 6.9,5.41 5.83,9.68997 z M 9.37,13.34 c -0.04,0.11 -0.15,0.27 -0.4,0.21 -0.04,0 -0.64,-0.16 -0.64,-0.16 l -0.44,1 1.14,0.28 c 0.22,0.06 0.42,0.11 0.63,0.17 l -0.36,1.45 0.87,0.22 0.36,-1.44 c 0.24,0.07 0.47,0.12 0.7,0.18 l -0.36,1.43 0.88,0.22 0.36,-1.45 c 1.5,0.28 2.63,0.17 3.1,-1.19 0.38,-1.09 -0.02,-1.72 -0.81,-2.13 0.57,-0.13 1,-0.51 1.12,-1.29 0.16,-1.05997 -0.65,-1.63997 -1.76,-2.00997 l 0.36,-1.45 -0.88,-0.22 -0.35,1.4 c -0.23,-0.06 -0.47,-0.11 -0.71,-0.17 l 0.35,-1.41 -0.87,-0.22 -0.36,1.44 c -0.19,-0.04 -0.38,-0.09 -0.56,-0.13 l -1.21,-0.31 -0.23,0.94 c 0,0 0.64,0.15 0.64,0.16 0.35,0.09 0.41,0.32 0.41,0.51 L 9.36,13.32 Z"
             fill="#000000"
             id="path1-1-7-9-4-9-1-6"
             style="fill:#f7931a;fill-opacity:1" />
        </g>
      </g>
    </g>
  </g>
</svg>
