<?xml version="1.0" encoding="UTF-8" standalone="no"?>
<!-- Created with Inkscape (http://www.inkscape.org/) -->

<svg
   width="512"
   height="512"
   viewBox="0 0 135.46666 135.46667"
   version="1.1"
   id="svg1"
   xmlns="http://www.w3.org/2000/svg"
   xmlns:svg="http://www.w3.org/2000/svg">
  <defs
     id="defs1" />
  <g
     id="layer1">
    <path
       style="fill:#ffffff;fill-opacity:1;stroke-width:5.6659"
       d="M 14.06946,127.54097 C 7.7038167,123.22581 4.5926693,115.26159 6.5740356,108.35361 7.4618827,105.25629 18.283758,92.892607 38.158047,72.267756 L 68.391306,40.893553 h -17.49121 c -19.594959,0 -24.773028,-1.621808 -28.560118,-8.945555 -2.88791,-5.584711 -2.88791,-11.003581 0,-16.588291 C 26.753151,6.82561 30.116997,6.1685352 73.926327,5.2844277 109.20337,4.5725069 114.37294,4.7676973 118.63427,6.9712804 c 8.78102,4.5407676 9.33627,7.2951336 10.38163,51.5277066 0.84479,35.741425 0.67481,40.640332 -1.55755,44.957863 -2.83805,5.48805 -9.28982,9.39634 -15.49795,9.38807 -4.89704,-0.006 -13.107499,-4.63063 -15.215215,-8.56878 -0.806258,-1.50611 -1.954736,-10.682661 -2.553056,-20.392376 L 93.105409,66.229829 62.206972,97.921492 C 33.821365,127.03647 30.821836,129.67355 25.312878,130.3555 c -4.655106,0.57623 -7.170201,-0.051 -11.243418,-2.81453 z"
       id="path15" />
  </g>
</svg>
