<?xml version="1.0" encoding="UTF-8" standalone="no"?>
<!-- Created with Inkscape (http://www.inkscape.org/) -->

<svg
   width="512"
   height="512"
   viewBox="0 0 135.46666 135.46667"
   version="1.1"
   id="svg1"
   xmlns="http://www.w3.org/2000/svg"
   xmlns:svg="http://www.w3.org/2000/svg">
  <defs
     id="defs1" />
  <g
     id="layer1">
    <path
       id="path18-4-37-5-3-9"
       style="fill:#ffffff;fill-opacity:1;stroke:none;stroke-width:24.6172;stroke-dasharray:none;stroke-opacity:1"
       d="M 134.1034,66.965936 A 66.409567,66.409567 0 0 0 67.689444,0.55197149 66.409567,66.409567 0 0 0 1.2754794,66.965936 66.409567,66.409567 0 0 0 67.689444,133.37989 66.409567,66.409567 0 0 0 134.1034,66.965936 Z m -23.15808,2.635531 -0.7469,1.61553 -0.73045,1.61554 -16.135935,16.18694 c -8.876559,8.903867 -16.626523,16.518923 -17.224036,16.918043 -0.59884,0.39813 -1.720824,0.92786 -2.480891,1.19108 l -1.378628,0.47709 h -1.835984 -1.819538 l -1.35889,-0.46063 c -2.398626,-0.82258 -4.137545,-2.16173 -5.457944,-4.19974 -2.06959,-3.198168 -2.220938,-6.966539 -0.4409,-10.541775 l 0.526447,-1.08909 6.869154,-6.886261 c 3.771667,-3.786144 7.549583,-7.140272 7.549583,-7.226477 0,-0.06581 -19.419981,0.03285 -33.360306,0.03285 h -9.82779 l -1.378643,-0.424451 c -5.188791,-1.602368 -8.328382,-7.2143 -6.954368,-12.395531 1.016708,-3.776601 4.289574,-6.874744 8.02537,-7.583143 0.746888,-0.131605 -5.461884,-0.230322 10.609893,-0.230322 h 32.255094 l -6.869482,-6.937258 -6.869148,-6.937261 -0.681091,-1.395086 c -1.98404,-4.152023 -1.345739,-8.439938 1.750437,-11.783207 3.10933,-3.357747 7.833535,-4.1744 12.15698,-2.125531 l 1.411544,0.644898 15.761835,15.710833 c 8.669597,8.63999 16.181677,16.271172 16.697267,16.951935 0.51657,0.681092 1.15818,1.786631 1.42799,2.464431 l 0.49354,1.240441 v 2.582877 z" />
  </g>
</svg>
