<?xml version="1.0" encoding="UTF-8" standalone="no"?>
<!-- Created with Inkscape (http://www.inkscape.org/) -->

<svg
   width="512"
   height="512"
   viewBox="0 0 135.46666 135.46667"
   version="1.1"
   id="svg1"
   sodipodi:docname="back.svg"
   inkscape:version="1.3.2 (091e20e, 2023-11-25, custom)"
   xmlns:inkscape="http://www.inkscape.org/namespaces/inkscape"
   xmlns:sodipodi="http://sodipodi.sourceforge.net/DTD/sodipodi-0.dtd"
   xmlns="http://www.w3.org/2000/svg"
   xmlns:svg="http://www.w3.org/2000/svg">
  <sodipodi:namedview
     id="namedview1"
     pagecolor="#ffffff"
     bordercolor="#000000"
     borderopacity="0.25"
     inkscape:showpageshadow="2"
     inkscape:pageopacity="0.0"
     inkscape:pagecheckerboard="0"
     inkscape:deskcolor="#d1d1d1"
     inkscape:document-units="mm"
     showguides="false"
     inkscape:zoom="0.36569515"
     inkscape:cx="-467.6026"
     inkscape:cy="466.23534"
     inkscape:window-width="1920"
     inkscape:window-height="1017"
     inkscape:window-x="-8"
     inkscape:window-y="-8"
     inkscape:window-maximized="1"
     inkscape:current-layer="layer1">
    <sodipodi:guide
       position="-115.39951,-100.1205"
       orientation="1,0"
       id="guide1"
       inkscape:locked="false" />
  </sodipodi:namedview>
  <defs
     id="defs1" />
  <g
     inkscape:label="Layer 1"
     inkscape:groupmode="layer"
     id="layer1">
    <path
       style="fill:#ffffff;fill-opacity:1"
       d="m 57.274126,109.66391 c -0.9498,-0.32382 -2.31902,-1.02678 -3.04271,-1.56213 -0.72369,-0.53535 -8.71194,-8.393347 -17.75167,-17.462217 -15.34035,-15.38981 -16.49533,-16.6123 -17.32804,-18.34094 -0.8386,-1.74083 -0.89231,-2.01928 -0.89435,-4.63577 -0.002,-2.62242 0.0496,-2.89066 0.89048,-4.63021 0.83354,-1.72427 2.0246,-2.97864 17.99166,-18.94794 16.04132,-16.04357 17.2136,-17.15636 18.95112,-17.9895 1.738,-0.83338 2.02353,-0.88822 4.63577,-0.89025 2.60541,-0.002 2.89503,0.0527 4.52227,0.85374 4.41939,2.17566 6.93752,6.89513 6.14311,11.51337 -0.55618,3.23327 -0.92538,3.72064 -8.91932,11.77396 l -7.41937,7.47448 26.44793,0.003 c 28.223894,0.003 27.664534,-0.0208 30.254944,1.30352 1.73958,0.88931 3.64752,2.95088 4.60856,4.97964 0.7832,1.65334 0.84485,1.98622 0.84485,4.56162 0,2.56844 -0.0624,2.90792 -0.82702,4.49791 -1.04574,2.17462 -2.29945,3.60587 -4.10399,4.68515 -2.87594,1.72009 -1.85053,1.66485 -30.907704,1.66485 h -26.33482 l 7.32603,7.34219 c 5.42988,5.44185 7.49953,7.6917 7.99637,8.69258 4.29582,8.653837 -3.98258,18.215827 -13.0841,15.112807 z"
       id="path13" />
  </g>
</svg>
