<?xml version="1.0" encoding="UTF-8" standalone="no"?>
<!-- Created with Inkscape (http://www.inkscape.org/) -->

<svg
   width="512"
   height="512"
   viewBox="0 0 135.46666 135.46667"
   version="1.1"
   id="svg1"
   xmlns="http://www.w3.org/2000/svg"
   xmlns:svg="http://www.w3.org/2000/svg">
  <defs
     id="defs1" />
  <g
     id="layer1">
    <g
       id="g16"
       transform="matrix(12.151675,0,0,12.151675,-38618.467,-5094.964)">
      <g
         id="g58-1-5-1-4-1-0-1"
         transform="matrix(0.75026131,0,0,0.75026131,1048.8346,317.50086)">
        <path
           id="path57-9-2-6-9-2-1-5"
           style="opacity:1;fill:#ffffff;fill-opacity:1;stroke:none;stroke-width:8.68495;stroke-dasharray:none;stroke-opacity:1"
           d="m 2843.0144,138.31121 a 3.2742188,3.0261719 0 0 0 -3.2744,3.02581 3.2742188,3.0261719 0 0 0 3.2744,3.02649 3.2742188,3.0261719 0 0 0 0.2501,-0.0165 0.20732251,0.20938885 0 0 1 0.031,-0.0902 l -0.012,-0.0103 2.9886,-3.2042 a 3.2742188,3.0261719 0 0 0 -3.258,-2.73101 z" />
        <g
           style="fill:#f7931a;fill-opacity:1"
           id="g57-6-4-1-8-8-1-6"
           transform="matrix(0.53599157,0,0,0.53599157,2836.6981,135.03582)">
          <path
             id="path1-1-7-9-4-1-4-2-7"
             style="fill:#f7931a;fill-opacity:1"
             d="m 11.928338,4.0034081 c -3.5644772,0.030083 -6.7959577,2.4470902 -7.6987693,6.0667489 -1.069999,4.279996 1.5503027,8.619322 5.8302983,9.689321 1.901997,0.469957 3.813746,0.217685 5.446067,-0.580845 L 12.662105,18.110752 A 0.65794868,0.65794868 0 0 1 12.41666,17.041585 l 1.417416,-1.518936 c -0.488784,0.09682 -1.07165,0.04863 -1.724545,-0.07325 l -0.359815,1.450828 -0.880264,-0.219745 0.361101,-1.430267 c -0.23,-0.06 -0.460356,-0.109908 -0.700355,-0.179908 L 10.170382,16.509572 9.3003991,16.289827 9.6602148,14.840284 C 9.450215,14.780284 9.2505372,14.729372 9.0305374,14.669372 L 7.8894078,14.390515 8.330182,13.389456 c 0,0 0.5999578,0.160632 0.6399578,0.160632 0.2499997,0.06 0.3596524,-0.09946 0.3996524,-0.209464 l -0.01028,-0.02056 0.9907788,-3.9502616 c 0,-0.1899998 -0.05993,-0.4201672 -0.4099335,-0.5101672 0,-0.01 -0.6399579,-0.1593469 -0.6399579,-0.1593469 l 0.230025,-0.9406609 1.2092384,0.3109835 c 0.179999,0.04 0.370284,0.089791 0.560283,0.1297907 l 0.359816,-1.4405477 0.869983,0.2197446 -0.349536,1.4109914 c 0.24,0.06 0.479351,0.1096274 0.709351,0.1696273 l 0.35082,-1.4007109 0.878979,0.2210296 -0.359816,1.4495431 c 1.109999,0.3699996 1.920526,0.9498584 1.760527,2.009827 -0.12,0.78 -0.55057,1.160197 -1.120569,1.290196 0.712728,0.369897 1.10679,0.920509 0.898254,1.82478 L 19.55643,9.3916474 C 18.698983,6.9235884 16.651588,4.9201415 13.930455,4.2398584 13.260144,4.0742335 12.588427,3.9978372 11.928338,4.0034081 Z m 0.03213,5.4460668 -0.440774,1.7502461 c 0.499999,0.12 2.029689,0.630183 2.279689,-0.359816 0.25,-1.0299686 -1.338916,-1.2704302 -1.838915,-1.3904301 z m -0.660519,2.6407901 -0.479326,1.930154 c 0.6,0.15 2.429903,0.739178 2.699903,-0.350821 0.279999,-1.139998 -1.620578,-1.429333 -2.220577,-1.579333 z" />
        </g>
      </g>
      <path
         d="m 3188.6164,425.34442 -3.7077,3.96542 a 0.26458336,0.26458336 0 0 1 -0.4526,-0.23191 l 0.4871,-2.42481 -1.9054,-0.71741 a 0.26458336,0.26458336 0 0 1 -0.099,-0.43003 l 3.7078,-3.96543 a 0.26458336,0.26458336 0 0 1 0.4526,0.23193 l -0.4884,2.42744 1.9054,0.71641 a 0.26458336,0.26458336 0 0 1 0.099,0.42839 z"
         id="path1-8-4-2-3"
         style="fill:#f7931a;fill-opacity:1;stroke:none;stroke-width:0.633;stroke-dasharray:none;stroke-opacity:1" />
    </g>
  </g>
</svg>
