<?xml version="1.0" encoding="UTF-8" standalone="no"?>
<!-- Created with Inkscape (http://www.inkscape.org/) -->

<svg
   width="512"
   height="512"
   viewBox="0 0 135.46666 135.46667"
   version="1.1"
   id="svg1"
   xmlns="http://www.w3.org/2000/svg"
   xmlns:svg="http://www.w3.org/2000/svg">
  <defs
     id="defs1" />
  <g
     id="layer1">
    <g
       id="g58-1-5"
       transform="matrix(15.327089,0,0,15.327089,-43509.132,-2100.5527)">
      <ellipse
         style="opacity:1;fill:#ffffff;fill-opacity:1;stroke:none;stroke-width:8.68495;stroke-dasharray:none;stroke-opacity:1"
         id="path57-9-2"
         cx="2843.0142"
         cy="141.3371"
         rx="3.2742188"
         ry="3.0261719" />
      <g
         style="fill:#f7931a;fill-opacity:1"
         id="g57-6-4"
         transform="matrix(0.53599157,0,0,0.53599157,2836.6981,135.03582)">
        <path
           d="m 13.52,13.67 c -0.27,1.09 -2.1,0.5 -2.7,0.35 l 0.48,-1.93 c 0.6,0.15 2.5,0.44 2.22,1.58 z M 11.96,9.45003 11.52,11.2 c 0.5,0.12 2.03,0.63 2.28,-0.36 0.25,-1.02997 -1.34,-1.26997 -1.84,-1.38997 z m 7.8,4.47997 c -1.07,4.28 -5.41,6.89 -9.7,5.83 -4.28,-1.07 -6.9,-5.41 -5.83,-9.69 1.07,-4.28997 5.41,-6.88997 9.7,-5.82997 4.28,1.07 6.9,5.41 5.83,9.68997 z M 9.37,13.34 c -0.04,0.11 -0.15,0.27 -0.4,0.21 -0.04,0 -0.64,-0.16 -0.64,-0.16 l -0.44,1 1.14,0.28 c 0.22,0.06 0.42,0.11 0.63,0.17 l -0.36,1.45 0.87,0.22 0.36,-1.44 c 0.24,0.07 0.47,0.12 0.7,0.18 l -0.36,1.43 0.88,0.22 0.36,-1.45 c 1.5,0.28 2.63,0.17 3.1,-1.19 0.38,-1.09 -0.02,-1.72 -0.81,-2.13 0.57,-0.13 1,-0.51 1.12,-1.29 0.16,-1.05997 -0.65,-1.63997 -1.76,-2.00997 l 0.36,-1.45 -0.88,-0.22 -0.35,1.4 c -0.23,-0.06 -0.47,-0.11 -0.71,-0.17 l 0.35,-1.41 -0.87,-0.22 -0.36,1.44 c -0.19,-0.04 -0.38,-0.09 -0.56,-0.13 l -1.21,-0.31 -0.23,0.94 c 0,0 0.64,0.15 0.64,0.16 0.35,0.09 0.41,0.32 0.41,0.51 L 9.36,13.32 Z"
           fill="#000000"
           id="path1-1-7-9"
           style="fill:#f7931a;fill-opacity:1" />
      </g>
    </g>
  </g>
</svg>
