<?xml version="1.0" encoding="UTF-8" standalone="no"?>
<!-- Created with Inkscape (http://www.inkscape.org/) -->

<svg
   width="512"
   height="512"
   viewBox="0 0 135.46666 135.46667"
   version="1.1"
   id="svg1"
   xmlns="http://www.w3.org/2000/svg"
   xmlns:svg="http://www.w3.org/2000/svg">
  <defs
     id="defs1" />
  <g
     id="layer1">
    <path
       style="fill:#ffffff;stroke-width:1.31639;fill-opacity:1"
       d="m 27.298691,96.222357 c -3.96147,-1.520782 -6.977882,-5.910682 -6.977882,-10.155173 0,-2.047567 0.784235,-4.728131 1.848505,-6.318256 1.019709,-1.523542 37.050108,-37.627237 38.901771,-38.9809 3.180263,-2.324929 7.053983,-2.887604 10.696941,-1.553766 1.90058,0.695893 3.136598,1.855034 21.633488,20.288066 14.458736,14.408837 19.847126,19.996488 20.490046,21.247775 1.6288,3.170035 1.67509,7.270225 0.1165,10.325168 -0.8944,1.753201 -3.22482,3.98481 -5.15303,4.93458 -1.32023,0.650296 -2.20543,0.805438 -4.59569,0.805438 -5.003573,0 -4.458553,0.420981 -21.425221,-16.549128 L 67.876693,65.305694 52.718966,80.405487 C 38.564098,94.506266 37.427875,95.55438 35.545501,96.247366 32.933613,97.20889 29.844036,97.19953 27.298625,96.222376 Z"
       id="path14" />
  </g>
</svg>
