<?xml version="1.0" encoding="UTF-8" standalone="no"?>
<!-- Created with Inkscape (http://www.inkscape.org/) -->

<svg
   width="512"
   height="512"
   viewBox="0 0 135.46666 135.46667"
   version="1.1"
   id="svg1"
   xmlns="http://www.w3.org/2000/svg"
   xmlns:svg="http://www.w3.org/2000/svg">
  <defs
     id="defs1" />
  <g
     id="layer1">
    <path
       id="path1-6-0-4-9-6"
       style="fill:#ffffff;fill-opacity:1;stroke-width:0.488844"
       d="M 46.380703,9.1473454 A 11.732264,11.732264 0 0 0 34.64844,20.879608 v 35.509844 a 35.743072,35.743072 0 0 1 2.719225,-0.198062 35.743072,35.743072 0 0 1 35.739094,35.74678 35.743072,35.743072 0 0 1 -0.236492,3.24616 h 51.725863 a 7.821509,7.821509 0 0 0 7.82156,-7.821557 V 32.612314 a 7.821509,7.821509 0 0 0 -7.82156,-7.821558 H 46.380998 a 3.9107788,3.9107788 0 0 1 0,-7.821557 h 66.482872 a 3.9107788,3.9107788 0 0 0 0,-7.8214101 z M 109.24301,52.608671 a 5.8661318,5.8661318 0 0 1 3.62056,5.423076 5.8661318,5.8661318 0 0 1 -5.8662,5.866058 5.8661318,5.8661318 0 1 1 2.24564,-11.289134 z" />
    <path
       id="path18-4-37-5-3-9"
       style="fill:#f7481a;fill-opacity:1;stroke:none;stroke-width:11.0586;stroke-dasharray:none;stroke-opacity:1"
       d="M 32.696931,126.53604 A 29.832779,29.832779 0 0 1 2.8621757,96.701285 29.832779,29.832779 0 0 1 32.696931,66.866529 29.832779,29.832779 0 0 1 62.531686,96.701285 29.832779,29.832779 0 0 1 32.696931,126.53604 Z m 1.183942,-10.40317 0.725738,-0.33553 0.725737,-0.32813 7.271564,-7.24865 c 3.999833,-3.98757 7.420702,-7.46904 7.599993,-7.73746 0.178848,-0.26901 0.416819,-0.773035 0.535065,-1.114471 l 0.214322,-0.619316 v -0.824769 -0.817378 l -0.206931,-0.610448 c -0.36952,-1.07752 -0.971099,-1.858685 -1.886622,-2.451839 -1.436694,-0.92971 -3.129539,-0.9977 -4.735621,-0.198063 l -0.489245,0.236493 -3.093474,3.085788 c -1.700827,1.694324 -3.207582,3.391453 -3.246308,3.391453 -0.02956,0 0.01478,-8.723921 0.01478,-14.986251 v -4.41488 l -0.190673,-0.61932 c -0.719825,-2.33093 -3.240838,-3.74131 -5.568372,-3.12407 -1.69654,0.45673 -3.088301,1.92698 -3.406531,3.60519 -0.05912,0.33552 -0.103466,-2.45361 -0.103466,4.76622 V 100.2772 L 24.924445,97.191268 21.80806,94.10548 21.181354,93.799518 c -1.865189,-0.891279 -3.791424,-0.604539 -5.293301,0.786338 -1.508381,1.396786 -1.875241,3.519014 -0.95484,5.461214 l 0.289704,0.63409 7.057685,7.0806 c 3.881292,3.89459 7.309403,7.2692 7.615218,7.50081 0.305963,0.23206 0.802598,0.52029 1.107082,0.64149 l 0.557236,0.22171 h 1.160293 z" />
  </g>
</svg>
