<?xml version="1.0" encoding="UTF-8" standalone="no"?>
<!-- Created with Inkscape (http://www.inkscape.org/) -->

<svg
   width="512"
   height="256"
   viewBox="0 0 135.46666 67.733335"
   version="1.1"
   id="svg1"
   xmlns="http://www.w3.org/2000/svg"
   xmlns:svg="http://www.w3.org/2000/svg">
  <defs
     id="defs1" />
  <g
     id="layer1">
    <g
       id="g28-45-4-8-3-6-0"
       transform="matrix(2.0095709,0,0,2.0095709,-435.72585,0.73318719)">
      <g
         id="g18-1-0-3-3-1-1"
         transform="matrix(0.70278216,0,0,0.70278216,53.342854,-3.7229137)">
        <g
           id="g9-7-2-8-6-3-9-9"
           transform="matrix(0.37481846,0,0,0.37481846,31.945047,80.405718)">
          <path
             style="fill:#000000;stroke-width:0.264583"
             d="m 564.15589,-139.77135 c 5.22008,-1.56245 13.19395,-2.2919 20.3758,-1.86401 1.94028,0.11561 3.71515,0.25557 3.94417,0.31103 0.37105,0.0899 0.40281,0.055 0.29167,-0.32005 -0.25726,-0.86827 -1.56142,-2.85298 -2.61532,-3.98009 -2.89284,-3.09378 -6.77537,-4.66466 -10.88093,-4.40245 -2.16637,0.13837 -3.41468,0.47504 -5.43047,1.46462 -2.81363,1.38126 -5.45672,4.24057 -6.60255,7.14271 -0.44236,1.1204 -0.72659,2.08834 -0.61323,2.08834 0.0333,0 0.72214,-0.19804 1.53086,-0.4401 z"
             id="path8-0-8-5-6-8-02-2" />
          <path
             id="path6-1-8-5-3-5-7-9"
             style="fill:#ffffff;fill-opacity:1;stroke-width:0.264583"
             d="m 576.27302,-155.83773 c -8.34573,-0.0879 -16.06719,5.19624 -18.8076,13.4696 -0.45718,1.38024 -0.67041,2.46778 -0.97893,4.98293 -0.0906,0.73879 -0.16929,0.84203 -1.02013,1.35559 -3.6829,2.22299 -6.62618,5.83188 -7.36257,9.02616 -0.31015,1.34537 -0.12824,3.31372 0.4159,4.50229 1.16025,2.53432 4.01883,4.14662 7.37041,4.15702 1.99563,0.006 5.13975,-0.75619 8.00604,-1.94021 0.48586,-0.2007 0.60026,-0.17101 1.35363,0.33743 1.90752,1.28737 4.65448,2.41619 7.13304,2.9309 1.39863,0.29047 7.00931,0.27087 7.30568,-0.0255 0.11932,-0.11932 0.0378,-0.55104 -0.24523,-1.31243 -0.40569,-1.09116 -0.68601,-2.19105 -0.90045,-3.52925 l -0.10202,-0.63169 h -2.15796 c -2.68188,6.6e-4 -4.02708,-0.30605 -6.40522,-1.46349 -3.1097,-1.51351 -5.49426,-4.15802 -6.74068,-7.47635 -0.32489,-0.86495 -0.52473,-1.63259 -0.44533,-1.70479 0.20068,-0.18244 3.25434,-1.1501 4.64158,-1.47134 4.30316,-0.99648 6.52054,-1.22224 12.48478,-1.27124 l 5.33801,-0.0451 1.45172,-0.71801 c 2.13296,-1.05599 3.8672,-1.46635 6.30321,-1.49095 2.39468,-0.0242 4.22116,0.3373 6.12272,1.21042 l 1.2732,0.58461 1.02013,-0.66308 c 1.19509,-0.77843 2.61656,-2.24254 3.26636,-3.36446 1.21629,-2.10001 1.35844,-5.00454 0.34135,-6.96825 -1.03183,-1.99216 -2.45752,-3.18871 -4.61607,-3.8706 -2.63998,-0.83397 -5.30927,-0.77299 -9.11248,0.20599 l -1.79111,0.46102 -0.85337,-0.75333 c -1.87575,-1.65248 -4.93067,-3.21966 -7.61564,-3.90787 -1.56057,-0.4 -3.12746,-0.59972 -4.67297,-0.616 z m 20.08277,9.83246 c 1.02742,-9.9e-4 2.00253,0.12021 2.45027,0.33938 0.28039,0.13727 0.66318,0.45443 0.84945,0.70625 0.77085,1.04213 -0.53676,2.90098 -2.57779,3.6646 -0.55357,0.20713 -1.23075,0.37667 -1.50664,0.37667 -0.44798,0 -0.52413,-0.0869 -0.70428,-0.80237 -0.11095,-0.4406 -0.50502,-1.50523 -0.87692,-2.36787 l -0.67682,-1.56943 1.23985,-0.20991 c 0.55035,-0.0928 1.18643,-0.13673 1.80288,-0.13732 z m -39.05124,15.6099 0.60227,1.46937 c 0.33114,0.80896 0.92788,2.0192 1.32616,2.68961 0.39828,0.6704 0.69025,1.25387 0.64935,1.29477 -0.0409,0.0409 -0.69417,0.23145 -1.45368,0.42571 -1.6009,0.40942 -3.28449,0.44645 -4.10405,0.0902 -0.50447,-0.21925 -0.57284,-0.33008 -0.57284,-0.92792 0,-1.05827 0.74891,-2.32372 2.21878,-3.74897 z" />
          <path
             style="fill:#f7931a;fill-opacity:1;stroke-width:0.264583"
             d="m 591.66446,-114.28725 c -2.98958,-0.46378 -5.62779,-2.43808 -6.94895,-5.20025 -1.78832,-3.73885 -1.09038,-7.75624 1.85758,-10.69232 2.10248,-2.09401 4.96854,-3.0697 7.81589,-2.66077 3.64372,0.5233 6.72738,3.1946 7.76478,6.72643 0.35868,1.22114 0.36406,3.67758 0.011,5.033 -1.15953,4.45174 -5.88587,7.50977 -10.50032,6.79391 z"
             id="path1-3-79-7-3-6-45-1" />
        </g>
      </g>
      <text
         xml:space="preserve"
         style="font-style:italic;font-variant:normal;font-weight:900;font-stretch:normal;font-size:10.9375px;line-height:1.2;font-family:'Red Hat Display';-inkscape-font-specification:'Red Hat Display Heavy Italic';text-align:start;writing-mode:lr-tb;direction:ltr;text-anchor:start;fill:#ffffff;fill-opacity:1;stroke:none;stroke-width:8.61226;stroke-dasharray:none;stroke-opacity:1"
         x="242.33444"
         y="20.111177"
         id="text18-4-6-7-8-0-0-6"><tspan
           id="tspan18-14-0-3-4-4-1-0"
           style="font-style:italic;font-variant:normal;font-weight:900;font-stretch:normal;font-family:'Red Hat Display';-inkscape-font-specification:'Red Hat Display Heavy Italic';fill:#ffffff;fill-opacity:1;stroke:none;stroke-width:8.61226"
           x="242.33444"
           y="20.111177">europa</tspan></text>
    </g>
  </g>
</svg>
