<?xml version="1.0" encoding="UTF-8" standalone="no"?>
<!-- Created with Inkscape (http://www.inkscape.org/) -->

<svg
   width="512"
   height="256"
   viewBox="0 0 135.46666 67.733335"
   version="1.1"
   id="svg1"
   xmlns="http://www.w3.org/2000/svg"
   xmlns:svg="http://www.w3.org/2000/svg">
  <defs
     id="defs1" />
  <g
     id="layer1">
    <g
       id="g1"
       transform="matrix(3.2941319,0,0,3.2941319,156.43952,-525.57886)">
      <path
         id="path36-6"
         style="font-weight:900;font-size:26.5903px;line-height:1.2;font-family:'Red Hat Display';-inkscape-font-specification:'Red Hat Display Heavy';fill:#ffffff;stroke-width:12.1003"
         d="m -15.295658,165.88484 c -0.624936,0 -1.249704,0.0769 -1.874639,0.23055 -0.614684,0.14343 -1.255015,0.36352 -1.920931,0.66062 l 0.89118,1.82865 c 0.532733,-0.22539 0.993752,-0.38914 1.383055,-0.49158 0.39955,-0.10245 0.758159,-0.15381 1.075747,-0.15381 0.512246,0 0.896382,0.10242 1.152496,0.30731 0.266367,0.19466 0.399596,0.49692 0.399596,0.90671 v 0.3996 c -0.594201,-0.15368 -1.208699,-0.23056 -1.843876,-0.23056 -1.055219,0 -1.880135,0.2151 -2.47433,0.64539 -0.583955,0.42004 -0.875947,1.01957 -0.875947,1.79818 0,0.49175 0.12296,0.92694 0.368833,1.306 0.256126,0.37907 0.60446,0.67635 1.044985,0.89148 0.450771,0.21514 0.96315,0.32255 1.536863,0.32255 0.440525,0 0.839925,-0.0461 1.198494,-0.13828 0.36881,-0.10245 0.717144,-0.2662 1.044978,-0.49158 v 0.49158 h 2.458802 v -5.20939 c 0,-0.97325 -0.312531,-1.72627 -0.937467,-2.259 -0.624935,-0.54298 -1.500905,-0.81442 -2.627839,-0.81442 z m -0.368833,5.05587 c 0.25612,0 0.507321,0.0153 0.7532,0.046 0.245874,0.0308 0.486505,0.0768 0.722137,0.13828 v 1.04498 c -0.215139,0.13319 -0.45577,0.23062 -0.722137,0.29209 -0.256125,0.0615 -0.532854,0.092 -0.829955,0.092 -0.39955,0 -0.712081,-0.0716 -0.937467,-0.21503 -0.225385,-0.14343 -0.338075,-0.34327 -0.338075,-0.59939 0,-0.25613 0.117972,-0.45069 0.353604,-0.58387 0.235633,-0.14343 0.568409,-0.21503 0.998693,-0.21503 z" />
      <path
         style="font-weight:900;font-size:26.5903px;line-height:1.2;font-family:'Red Hat Display';-inkscape-font-specification:'Red Hat Display Heavy';fill:#ffffff;stroke-width:12.1003"
         d="m -9.0410905,174.33675 q -0.583955,0 -1.0142385,-0.41491 -0.414916,-0.43029 -0.414916,-1.01424 0,-0.58396 0.414916,-0.99888 0.4302835,-0.43028 1.0142385,-0.43028 0.583955,0 0.998872,0.43028 0.430284,0.41492 0.430284,0.99888 0,0.58395 -0.430284,1.01424 -0.414917,0.41491 -0.998872,0.41491 z"
         id="path39-0" />
      <path
         style="font-weight:900;font-size:26.5903px;line-height:1.2;font-family:'Red Hat Display';-inkscape-font-specification:'Red Hat Display Heavy';fill:#ffffff;stroke-width:12.1003"
         d="m -9.9938605,170.84838 -0.3073415,-7.51458 h 2.5202295 l -0.307347,7.51458 z"
         id="path38-4" />
      <path
         style="font-weight:900;font-size:26.5903px;line-height:1.2;font-family:'Red Hat Display';-inkscape-font-specification:'Red Hat Display Heavy';fill:#ffffff;stroke-width:12.1003"
         d="m -23.055998,174.16771 v -10.75707 l 2.489495,-0.38418 v 11.14125 z"
         id="path35-9" />
      <path
         id="path33-4"
         style="font-weight:900;font-size:26.5903px;line-height:1.2;font-family:'Red Hat Display';-inkscape-font-specification:'Red Hat Display Heavy';fill:#ffffff;stroke-width:12.1003"
         d="m -28.634193,165.88462 c -0.829833,0 -1.577878,0.1899 -2.243791,0.56896 -0.665913,0.36881 -1.193548,0.87593 -1.582849,1.52135 -0.389303,0.63518 -0.583944,1.34693 -0.583944,2.13579 0,0.78885 0.194641,1.50112 0.583944,2.1363 0.389301,0.63518 0.916936,1.1423 1.582849,1.52136 0.665913,0.36881 1.413958,0.55293 2.243791,0.55293 0.829828,0 1.57736,-0.18412 2.243274,-0.55293 0.665913,-0.37906 1.193546,-0.88618 1.582849,-1.52136 0.389302,-0.63518 0.583943,-1.34745 0.583943,-2.1363 0,-0.78886 -0.194641,-1.50061 -0.583943,-2.13579 -0.389303,-0.64542 -0.916936,-1.15254 -1.582849,-1.52135 -0.665914,-0.37906 -1.413446,-0.56896 -2.243274,-0.56896 z m 0,1.83606 a 2.3821251,2.3821251 0 0 1 2.381766,2.38229 2.3821251,2.3821251 0 0 1 -2.381766,2.38228 2.3821251,2.3821251 0 0 1 -2.382284,-2.38228 2.3821251,2.3821251 0 0 1 2.382284,-2.38229 z" />
      <path
         style="font-weight:900;font-size:26.5903px;line-height:1.2;font-family:'Red Hat Display';-inkscape-font-specification:'Red Hat Display Heavy';fill:#ffffff;stroke-width:12.1003"
         d="m -42.065282,174.16771 v -10.75707 l 2.489495,-0.53786 v 3.71888 q 0.922037,-0.70689 2.182154,-0.70689 0.952765,0 1.675029,0.41491 0.737626,0.41491 1.152543,1.15255 0.414917,0.73762 0.414917,1.70576 v 5.00972 h -2.489496 v -4.67164 q 0,-0.67616 -0.39955,-1.07571 -0.39955,-0.39955 -1.075707,-0.39955 -0.476385,0 -0.845195,0.16904 -0.353449,0.16904 -0.614695,0.47639 v 5.50147 z"
         id="path32-5" />
      <path
         style="font-weight:900;font-size:26.5903px;line-height:1.2;font-family:'Red Hat Display';-inkscape-font-specification:'Red Hat Display Heavy';fill:#ffffff;stroke-width:12.1003"
         d="m -44.816007,166.36115 q 0.583955,0 0.998872,0.43028 0.430278,0.41492 0.430278,0.99887 0,0.58396 -0.430278,1.01424 -0.414917,0.41492 -0.998872,0.41492 -0.58396,0 -1.014238,-0.41492 -0.414917,-0.43028 -0.414917,-1.01424 0,-0.58395 0.414917,-0.99887 0.430278,-0.43028 1.014238,-0.43028 z"
         id="path31-0" />
      <path
         style="font-weight:900;font-size:26.5903px;line-height:1.2;font-family:'Red Hat Display';-inkscape-font-specification:'Red Hat Display Heavy';fill:#ffffff;stroke-width:12.1003"
         d="m -43.863242,169.84951 0.307347,7.51459 h -2.520229 l 0.307347,-7.51459 z"
         id="text18-69" />
      <circle
         style="fill:#f7931a;fill-opacity:1;stroke:none;stroke-width:0.619446;stroke-dasharray:none;stroke-opacity:1"
         id="path30-0-9"
         cx="-28.634451"
         cy="170.10297"
         r="1.4915715" />
    </g>
  </g>
</svg>
