<?xml version="1.0" encoding="UTF-8" standalone="no"?>
<!-- Created with Inkscape (http://www.inkscape.org/) -->

<svg
   width="512"
   height="512"
   viewBox="0 0 135.46666 135.46667"
   version="1.1"
   id="svg1"
   xmlns="http://www.w3.org/2000/svg"
   xmlns:svg="http://www.w3.org/2000/svg">
  <defs
     id="defs1" />
  <path
     style="fill:#292b32;stroke-width:1.41781;fill-opacity:1"
     d="M 65.252289,134.19708 C 58.287029,133.40864 52.040738,127.22913 50.907201,120.0054 50.690419,118.62418 50.523259,110.45194 50.5217,101.15523 V 84.743408 l -17.349704,-0.01418 c -9.880555,0 -18.030818,-0.166308 -18.931977,-0.3743 C 5.0663821,82.23786 -0.78306396,72.628531 1.5798532,63.556835 3.2615139,57.100426 8.7573597,52.056861 15.259707,51.002722 c 1.439499,-0.233371 9.151092,-0.396419 18.827058,-0.39812 H 50.47562 L 50.607477,32.69217 c 0.124766,-17.028854 0.169994,-18.014088 0.908814,-19.975482 1.072287,-2.8468141 2.056103,-4.3698233 4.268166,-6.6075476 7.808288,-7.8987448 21.026078,-6.11216659 26.723818,3.6120045 2.047455,3.4944691 2.150246,4.6185061 2.150246,23.5187241 v 17.364733 h 16.599399 c 9.12968,0.0013 17.61228,0.166733 18.85017,0.36792 9.00818,1.463603 15.53832,10.385578 14.10704,19.273952 -1.09782,6.817666 -5.95238,12.201788 -12.60657,13.981986 -1.43795,0.384652 -5.96698,0.502756 -19.41276,0.506157 H 84.658521 v 17.591433 c 0,16.42515 -0.04821,17.74968 -0.736834,19.97563 -2.49534,8.07441 -10.019074,12.86546 -18.666421,11.8866 z"
     id="path6" />
</svg>
