<?xml version="1.0" encoding="UTF-8" standalone="no"?>
<!-- Created with Inkscape (http://www.inkscape.org/) -->

<svg
   width="512"
   height="512"
   viewBox="0 0 135.46666 135.46667"
   version="1.1"
   id="svg1"
   xmlns="http://www.w3.org/2000/svg"
   xmlns:svg="http://www.w3.org/2000/svg">
  <defs
     id="defs1" />
  <g
     id="layer1">
    <g
       id="g8"
       transform="matrix(14.826306,0,0,14.826306,2147.2762,-2041.8231)">
      <path
         id="path18-4-37-5-3"
         style="fill:#f7931a;fill-opacity:1;stroke:none;stroke-width:0.748172;stroke-dasharray:none;stroke-opacity:1"
         d="m -142.62437,142.21871 a 2.0183463,2.0183463 0 0 0 -2.01848,2.01848 2.0183463,2.0183463 0 0 0 2.01848,2.01848 2.0183463,2.0183463 0 0 0 2.01797,-2.01848 2.0183463,2.0183463 0 0 0 -2.01797,-2.01848 z m 0.008,0.73432 c 0.14373,8.2e-4 0.26248,0.0933 0.30489,0.23616 0.0127,0.043 0.0155,0.10978 0.0155,0.38654 v 0.33435 l 0.35863,0.003 0.35863,0.003 0.0548,0.0269 c 0.11346,0.0557 0.18397,0.16904 0.18397,0.29507 0,0.14798 -0.0906,0.26901 -0.23409,0.31161 -0.043,0.0127 -0.10979,0.0155 -0.38654,0.0155 h -0.33435 l -0.003,0.35347 -0.003,0.35398 -0.0284,0.0615 c -0.073,0.15817 -0.25734,0.22951 -0.41962,0.16279 -0.0711,-0.0292 -0.14297,-0.0976 -0.17363,-0.16537 -0.022,-0.0485 -0.0224,-0.0578 -0.0253,-0.40824 l -0.003,-0.35864 h -0.33383 c -0.24792,-9e-5 -0.34641,-0.004 -0.38292,-0.0129 -0.14047,-0.0374 -0.23994,-0.16457 -0.24082,-0.30747 -5e-4,-0.0782 0.0135,-0.1267 0.0548,-0.18862 0.0388,-0.0583 0.0916,-0.0995 0.15865,-0.12454 0.0498,-0.0186 0.0745,-0.0196 0.39842,-0.0196 h 0.34572 l 0.003,-0.35863 0.003,-0.35864 0.0258,-0.0537 c 0.0579,-0.12143 0.1662,-0.18836 0.30282,-0.18707 z" />
      <path
         id="path1-6-0-4-9"
         style="fill:#ffffff;fill-opacity:1;stroke-width:0.0330729"
         d="m -141.69871,138.31372 a 0.79375008,0.79375008 0 0 0 -0.79375,0.79375 v 2.40243 a 2.4182091,2.4182091 0 0 1 0.18397,-0.0134 2.4182091,2.4182091 0 0 1 2.41794,2.41846 2.4182091,2.4182091 0 0 1 -0.016,0.21962 h 3.49953 a 0.52916672,0.52916672 0 0 0 0.52917,-0.52917 v -3.70416 a 0.52916672,0.52916672 0 0 0 -0.52917,-0.52917 h -5.29167 a 0.264585,0.264585 0 0 1 0,-0.52917 h 4.49792 a 0.264585,0.264585 0 0 0 0,-0.52916 z m 4.25297,2.94039 a 0.39687504,0.39687504 0 0 1 0.24495,0.3669 0.39687504,0.39687504 0 0 1 -0.39688,0.39687 0.39687504,0.39687504 0 1 1 0.15193,-0.76377 z" />
    </g>
  </g>
</svg>
