<?xml version="1.0" encoding="UTF-8" standalone="no"?>
<!-- Created with Inkscape (http://www.inkscape.org/) -->

<svg
   width="512"
   height="512"
   viewBox="0 0 135.46666 135.46667"
   version="1.1"
   id="svg1"
   xmlns="http://www.w3.org/2000/svg"
   xmlns:svg="http://www.w3.org/2000/svg">
  <defs
     id="defs1" />
  <g
     id="layer1">
    <g
       id="g19"
       transform="matrix(14.205876,0,0,14.205876,-49858.861,-9416.9882)">
      <g
         id="g58-1-5-1-4-1-0-5-4"
         transform="matrix(0.75026131,0,0,0.75026131,1380.2251,560.65294)">
        <path
           id="path57-9-2-6-9-2-1-7-2"
           style="opacity:1;fill:#ffffff;fill-opacity:1;stroke:none;stroke-width:8.68495;stroke-dasharray:none;stroke-opacity:1"
           d="m 2843.0139,138.31122 a 3.2742188,3.0261719 0 0 0 -3.2737,3.0258 3.2742188,3.0261719 0 0 0 3.2737,3.0265 3.2742188,3.0261719 0 0 0 1.2364,-0.23074 c 0.1454,-0.29904 0.3512,-0.56756 0.6116,-0.79003 0.2915,-0.24898 0.63,-0.42228 0.9912,-0.51314 a 3.2742188,3.0261719 0 0 0 0.4353,-1.49259 3.2742188,3.0261719 0 0 0 -3.2745,-3.0258 z" />
        <g
           style="fill:#f7931a;fill-opacity:1"
           id="g57-6-4-1-8-8-1-0-4"
           transform="matrix(0.53599157,0,0,0.53599157,2836.6981,135.03582)">
          <path
             id="path1-1-7-9-4-1-4-2-1-6"
             style="fill:#f7931a;fill-opacity:1"
             d="m 11.928649,4.0034164 c -3.5644736,0.030082 -6.7959588,2.447094 -7.6987695,6.0667486 -1.0699978,4.279992 1.5503071,8.619325 5.8302985,9.689321 1.256243,0.310401 2.515654,0.304765 3.697106,0.03598 -0.105588,-0.378883 -0.144829,-0.777174 -0.113085,-1.180966 0.09562,-1.216674 0.659082,-2.323527 1.587044,-3.116261 0.927962,-0.792759 2.109002,-1.177539 3.325724,-1.082017 0.354864,0.02788 0.691194,0.08457 1.008769,0.167057 0.07286,-0.213247 0.138404,-0.430247 0.194044,-0.652808 C 20.829778,9.6505116 18.209473,5.3098645 13.929481,4.2398667 13.25917,4.0742419 12.588738,3.9978455 11.928649,4.0034164 Z m -0.268576,2.7564448 0.869982,0.2197446 -0.349535,1.4109913 c 0.24,0.06 0.479351,0.1096276 0.709351,0.1696274 l 0.349535,-1.4007109 0.880264,0.2210296 -0.359816,1.4495431 c 1.109998,0.3699992 1.920526,0.9498591 1.760526,2.0098277 -0.119998,0.779998 -0.55057,1.160196 -1.120568,1.290196 0.789998,0.409998 1.189585,1.039339 0.809585,2.129337 -0.47,1.359998 -1.599557,1.469962 -3.099555,1.189962 l -0.359816,1.450828 -0.880263,-0.219744 0.359816,-1.430268 c -0.23,-0.06 -0.459071,-0.109907 -0.699071,-0.179907 l -0.3611,1.439262 -0.8699831,-0.219744 0.3611007,-1.449543 C 9.450526,14.780293 9.2495628,14.72938 9.0295632,14.66938 L 7.8897186,14.390523 8.3304928,13.389465 c 0,0 0.599958,0.160631 0.6399578,0.160631 0.2499996,0.06 0.3596524,-0.09946 0.3996524,-0.209464 l -0.01028,-0.02056 0.990778,-3.9502613 c 0,-0.1899996 -0.06122,-0.4201674 -0.4112178,-0.5101672 0,-0.01 -0.6399579,-0.1593469 -0.6399579,-0.1593469 l 0.230025,-0.9406609 1.2105227,0.3109835 c 0.179998,0.04 0.370284,0.089791 0.560284,0.1297907 z m 0.299418,2.689622 -0.43949,1.7502458 c 0.5,0.12 2.02969,0.630183 2.27969,-0.359815 0.249998,-1.0299686 -1.340202,-1.270431 -1.8402,-1.3904308 z m -0.659234,2.6407898 -0.480611,1.930154 c 0.599998,0.15 2.429904,0.739178 2.699902,-0.35082 0.28,-1.139998 -1.619293,-1.429334 -2.219291,-1.579334 z" />
        </g>
      </g>
      <g
         id="g30-4-2"
         style="fill:#f7931a;fill-opacity:1;stroke:none;stroke-width:0.625827;stroke-dasharray:none;stroke-opacity:1"
         transform="matrix(0.39222058,0,0,0.39222058,2143.1529,400.18208)">
        <g
           id="g3-9-3"
           transform="matrix(0.02265956,0,0,0.02265956,3496.0124,681.23149)"
           style="fill:#f7931a;fill-opacity:1;stroke:none;stroke-width:27.6187;stroke-dasharray:none;stroke-opacity:1">
          <g
             id="g2-3-7-1"
             style="fill:#f7931a;fill-opacity:1;stroke:none;stroke-width:27.6187;stroke-dasharray:none;stroke-opacity:1">
            <path
               d="m 466.912,167.796 v -82.72 c 0,-13.774 11.205,-24.98 24.98,-24.98 V 19.881 c -35.948,0 -65.195,29.246 -65.195,65.195 v 69.289 c -2.94,-0.278 -5.914,-0.434 -8.925,-0.434 -2.745,0 -5.455,0.143 -8.141,0.374 V 85.076 c 0,-35.948 -29.246,-65.195 -65.194,-65.195 v 40.215 c 13.772,0 24.979,11.205 24.979,24.98 v 82.28 c -27.452,16.481 -45.873,46.518 -45.873,80.803 v 51.746 c -11.807,3.791 -29.337,10.672 -51.56,22.919 -5.355,32.645 -21.877,62.065 -47.321,83.801 -25.65,21.913 -57.596,33.659 -90.969,33.659 -3.728,0 -7.472,-0.146 -11.229,-0.441 -31.616,-2.485 -61.3,-13.162 -86.671,-30.791 -10.55,14.05 -19.778,34.474 -19.778,62.961 V 492.12 H 408.399 C 465.525,492.119 512,445.644 512,388.52 V 248.159 c -10e-4,-33.963 -18.067,-63.779 -45.088,-80.363 z"
               id="path1-7-5-5"
               style="fill:#f7931a;fill-opacity:1;stroke:none;stroke-width:27.6187;stroke-dasharray:none;stroke-opacity:1" />
          </g>
        </g>
        <g
           id="g5-2-8-5"
           transform="matrix(0.02265956,0,0,0.02265956,3496.0124,681.23149)"
           style="fill:#f7931a;fill-opacity:1;stroke:none;stroke-width:27.6187;stroke-dasharray:none;stroke-opacity:1">
          <g
             id="g4-1-3-7"
             style="fill:#f7931a;fill-opacity:1;stroke:none;stroke-width:27.6187;stroke-dasharray:none;stroke-opacity:1">
            <path
               d="m 197.422,84.923 c -48.785,-3.83 -96.143,11.558 -133.35,43.344 -37.207,31.785 -59.809,76.158 -63.643,124.941 -2.853,36.291 8.598,71.521 32.243,99.198 23.645,27.679 56.652,44.493 92.942,47.342 26.683,2.102 52.58,-6.32 72.927,-23.704 20.347,-17.382 32.708,-41.647 34.805,-68.328 3.13,-39.814 -26.716,-74.753 -66.532,-77.882 -13.598,-1.071 -26.802,3.221 -37.173,12.083 -10.371,8.862 -16.673,21.231 -17.742,34.832 l -40.092,-3.153 c 1.912,-24.309 13.173,-46.419 31.714,-62.256 18.54,-15.839 42.145,-23.504 66.446,-21.598 20.941,1.648 40.098,8.965 56.109,20.309 22.677,16.065 39.015,40.223 45.092,67.887 4.223,-2.052 8.286,-3.936 12.158,-5.64 v -24.142 c 0,-29.082 9.303,-56.021 25.061,-78.043 5.973,-8.346 12.869,-15.985 20.549,-22.76 -31.999,-37.097 -76.163,-58.081 -131.514,-62.43 z"
               id="path2-8-1-3"
               style="fill:#f7931a;fill-opacity:1;stroke:none;stroke-width:27.6187;stroke-dasharray:none;stroke-opacity:1" />
          </g>
        </g>
      </g>
    </g>
  </g>
</svg>
