<?xml version="1.0" encoding="UTF-8" standalone="no"?>
<!-- Created with Inkscape (http://www.inkscape.org/) -->

<svg
   width="512"
   height="512"
   viewBox="0 0 135.46666 135.46667"
   version="1.1"
   id="svg1"
   xmlns="http://www.w3.org/2000/svg"
   xmlns:svg="http://www.w3.org/2000/svg">
  <defs
     id="defs1" />
  <g
     id="layer1">
    <g
       id="g13"
       transform="matrix(14.780803,0,0,14.780803,1987.8983,-2036.5387)">
      <path
         id="path1-6-0-4-9-6"
         style="fill:#ffffff;fill-opacity:1;stroke-width:0.0330729"
         d="m -131.354,138.40155 a 0.79375008,0.79375008 0 0 0 -0.79375,0.79375 v 2.40243 a 2.4182091,2.4182091 0 0 1 0.18397,-0.0134 2.4182091,2.4182091 0 0 1 2.41794,2.41846 2.4182091,2.4182091 0 0 1 -0.016,0.21962 h 3.49953 a 0.52916672,0.52916672 0 0 0 0.52917,-0.52917 v -3.70416 a 0.52916672,0.52916672 0 0 0 -0.52917,-0.52917 h -5.29167 a 0.264585,0.264585 0 0 1 0,-0.52917 h 4.49792 a 0.264585,0.264585 0 0 0 0,-0.52916 z m 4.25297,2.94039 a 0.39687504,0.39687504 0 0 1 0.24495,0.3669 0.39687504,0.39687504 0 0 1 -0.39688,0.39687 0.39687504,0.39687504 0 1 1 0.15193,-0.76377 z" />
      <path
         id="path18-4-37-5-3-9"
         style="fill:#f7931a;fill-opacity:1;stroke:none;stroke-width:0.748172;stroke-dasharray:none;stroke-opacity:1"
         d="m -132.27978,142.30656 a 2.0183463,2.0183463 0 0 0 -2.01848,2.01848 2.0183463,2.0183463 0 0 0 2.01848,2.01848 2.0183463,2.0183463 0 0 0 2.01848,-2.01848 2.0183463,2.0183463 0 0 0 -2.01848,-2.01848 z m 0.0801,0.70383 0.0491,0.0227 0.0491,0.0222 0.49196,0.49041 c 0.27061,0.26978 0.50205,0.50532 0.51418,0.52348 0.0121,0.0182 0.0282,0.0523 0.0362,0.0754 l 0.0145,0.0419 v 0.0558 0.0553 l -0.014,0.0413 c -0.025,0.0729 -0.0657,0.12575 -0.12764,0.16588 -0.0972,0.0629 -0.21173,0.0675 -0.32039,0.0134 l -0.0331,-0.016 -0.20929,-0.20877 c -0.11507,-0.11463 -0.21701,-0.22945 -0.21963,-0.22945 -0.002,0 0.001,0.59022 0.001,1.0139 v 0.29869 l -0.0129,0.0419 c -0.0487,0.1577 -0.21926,0.25312 -0.37673,0.21136 -0.11478,-0.0309 -0.20894,-0.13037 -0.23047,-0.24391 -0.004,-0.0227 -0.007,0.166 -0.007,-0.32246 v -0.98031 l -0.21084,0.20878 -0.21084,0.20877 -0.0424,0.0207 c -0.12619,0.0603 -0.25651,0.0409 -0.35812,-0.0532 -0.10205,-0.0945 -0.12687,-0.23808 -0.0646,-0.36948 l 0.0196,-0.0429 0.47749,-0.47904 c 0.26259,-0.26349 0.49452,-0.4918 0.51521,-0.50747 0.0207,-0.0157 0.0543,-0.0352 0.0749,-0.0434 l 0.0377,-0.015 h 0.0785 z" />
    </g>
  </g>
</svg>
