<?xml version="1.0" encoding="UTF-8" standalone="no"?>
<!-- Created with Inkscape (http://www.inkscape.org/) -->

<svg
   width="512"
   height="512"
   viewBox="0 0 135.46666 135.46667"
   version="1.1"
   id="svg1"
   sodipodi:docname="x-circle.svg"
   inkscape:version="1.3.2 (091e20e, 2023-11-25, custom)"
   xmlns:inkscape="http://www.inkscape.org/namespaces/inkscape"
   xmlns:sodipodi="http://sodipodi.sourceforge.net/DTD/sodipodi-0.dtd"
   xmlns="http://www.w3.org/2000/svg"
   xmlns:svg="http://www.w3.org/2000/svg">
  <sodipodi:namedview
     id="namedview1"
     pagecolor="#ffffff"
     bordercolor="#000000"
     borderopacity="0.25"
     inkscape:showpageshadow="2"
     inkscape:pageopacity="0.0"
     inkscape:pagecheckerboard="0"
     inkscape:deskcolor="#d1d1d1"
     inkscape:zoom="1.6035156"
     inkscape:cx="255.68819"
     inkscape:cy="256"
     inkscape:window-width="1920"
     inkscape:window-height="1017"
     inkscape:window-x="-8"
     inkscape:window-y="-8"
     inkscape:window-maximized="1"
     inkscape:current-layer="svg1" />
  <defs
     id="defs1" />
  <g
     id="layer1">
    <path
       d="M 67.73338,2.6424243 A 65.090909,65.090909 0 1 0 132.82424,67.733283 65.159754,65.159754 0 0 0 67.73338,2.6424243 Z M 91.305344,84.218767 a 5.0100697,5.0100697 0 0 1 -7.085642,7.084975 L 67.73338,74.811986 51.248628,91.303742 A 5.0099049,5.0099049 0 0 1 44.163503,84.218767 L 60.655571,67.733283 44.163503,51.247751 A 5.0098381,5.0098381 0 0 1 51.248628,44.16294 L 67.73338,60.654696 84.219702,44.16294 a 5.0100138,5.0100138 0 0 1 7.085642,7.084811 L 74.812757,67.733283 Z"
       id="path1-38"
       style="fill:#fba088;fill-opacity:1;stroke-width:0.625872" />
  </g>
</svg>
