<?xml version="1.0" encoding="UTF-8" standalone="no"?>
<!-- Created with Inkscape (http://www.inkscape.org/) -->

<svg
   width="512"
   height="512"
   viewBox="0 0 135.46666 135.46667"
   version="1.1"
   id="svg1"
   xmlns="http://www.w3.org/2000/svg"
   xmlns:svg="http://www.w3.org/2000/svg">
  <defs
     id="defs1" />
  <g
     id="layer1">
    <path
       d="M 67.73338,2.6424243 A 65.090909,65.090909 0 1 0 132.82424,67.733283 65.159754,65.159754 0 0 0 67.73338,2.6424243 Z M 91.305344,84.218767 a 5.0100697,5.0100697 0 0 1 -7.085642,7.084975 L 67.73338,74.811986 51.248628,91.303742 A 5.0099049,5.0099049 0 0 1 44.163503,84.218767 L 60.655571,67.733283 44.163503,51.247751 A 5.0098381,5.0098381 0 0 1 51.248628,44.16294 L 67.73338,60.654696 84.219702,44.16294 a 5.0100138,5.0100138 0 0 1 7.085642,7.084811 L 74.812757,67.733283 Z"
       id="path1-38"
       style="fill:#f7481a;fill-opacity:1;stroke-width:0.625872" />
  </g>
</svg>
